<?xml version="1.0" standalone="no"?>
<!DOCTYPE svg PUBLIC "-//W3C//DTD SVG 20010904//EN"
 "http://www.w3.org/TR/2001/REC-SVG-20010904/DTD/svg10.dtd">
<svg version="1.0" xmlns="http://www.w3.org/2000/svg"
 width="1307.000000pt" height="980.000000pt" viewBox="0 0 1307.000000 980.000000"
 preserveAspectRatio="xMidYMid meet">

<g transform="translate(0.000000,980.000000) scale(0.100000,-0.100000)"
fill="white" stroke="none">
<path d="M3195 5528 c-4 -21 -83 -531 -155 -1003 -16 -104 -32 -209 -36 -232
l-7 -43 169 0 169 0 43 328 c24 180 46 355 49 390 3 34 10 65 14 68 5 3 9 -1
9 -9 0 -13 129 -473 165 -587 7 -25 23 -78 35 -117 l21 -73 122 0 122 0 104
363 c126 439 129 447 130 422 2 -44 33 -299 56 -460 13 -93 27 -197 30 -230
11 -104 -6 -95 181 -95 163 0 164 0 164 23 0 27 2 11 -104 698 -47 307 -86
562 -86 568 0 8 -56 11 -182 11 l-183 0 -53 -183 c-29 -100 -71 -243 -93 -317
-22 -74 -51 -173 -64 -220 -12 -47 -25 -78 -28 -70 -3 8 -42 141 -86 295 -45
154 -94 326 -111 383 -16 56 -30 104 -30 107 0 3 -81 5 -180 5 -178 0 -180 0
-185 -22z"/>
<path d="M5080 5405 l0 -145 400 0 400 0 0 145 0 145 -400 0 -400 0 0 -145z"/>
<path d="M6312 5479 l3 -73 175 -123 175 -123 3 52 3 51 93 -7 c162 -11 262
-56 311 -139 36 -62 46 -99 50 -193 6 -122 -28 -236 -87 -291 -56 -53 -193
-92 -320 -93 l-47 0 -3 50 -3 50 -175 -123 -175 -122 -3 -73 -3 -72 283 0
c389 0 495 18 634 109 119 77 207 202 244 347 24 94 27 266 5 369 -36 170
-148 316 -300 392 -136 68 -186 76 -548 81 l-318 4 3 -73z"/>
<path d="M7970 4900 l0 -650 185 0 185 0 0 650 0 650 -185 0 -185 0 0 -650z"/>
<path d="M9165 5538 c-3 -7 -47 -137 -99 -288 -52 -151 -150 -437 -219 -635
l-125 -360 176 -3 c96 -1 177 0 180 2 2 3 19 53 37 113 l33 108 250 3 250 2
15 -52 c9 -29 23 -81 32 -115 l18 -63 179 0 c140 0 179 3 175 13 -2 6 -34 98
-70 202 -35 105 -133 387 -216 627 -83 241 -151 442 -151 448 0 16 -459 13
-465 -2z m270 -343 c22 -85 118 -403 132 -442 4 -10 -33 -13 -166 -13 -94 0
-171 2 -171 5 0 2 31 107 69 232 37 125 74 252 81 281 7 30 16 50 20 45 5 -4
20 -53 35 -108z"/>
<path d="M6260 4901 c0 -210 3 -381 8 -381 4 0 68 43 142 96 74 52 195 136
267 187 73 50 133 94 133 97 0 6 -525 373 -540 378 -7 3 -10 -128 -10 -377z"/>
<path d="M5080 4900 l0 -140 385 0 385 0 0 140 0 140 -385 0 -385 0 0 -140z"/>
<path d="M5080 4390 l0 -140 400 0 400 0 0 140 0 140 -400 0 -400 0 0 -140z"/>
</g>
</svg>
